<?xml version="1.0" standalone="yes"?>

<svg version="1.1" viewBox="0.0 0.0 960.0 720.0" fill="none" stroke="none" stroke-linecap="square" stroke-miterlimit="10" xmlns="http://www.w3.org/2000/svg" xmlns:xlink="http://www.w3.org/1999/xlink"><clipPath id="p.0"><path d="m0 0l960.0 0l0 720.0l-960.0 0l0 -720.0z" clip-rule="nonzero"></path></clipPath><g clip-path="url(#p.0)"><path fill="#000000" fill-opacity="0.0" d="m0 0l960.0 0l0 720.0l-960.0 0z" fill-rule="nonzero"></path><path fill="#000000" fill-opacity="0.0" d="m0 7.8221254l424.34647 439.9685" fill-rule="nonzero"></path><path stroke="#ffff00" stroke-width="12.0" stroke-linejoin="round" stroke-linecap="butt" d="m0 7.8221254l424.34647 439.9685" fill-rule="nonzero"></path><path fill="#000000" fill-opacity="0.0" d="m424.33783 444.61746l431.937 -444.6299" fill-rule="nonzero"></path><path stroke="#ffff00" stroke-width="12.0" stroke-linejoin="round" stroke-linecap="butt" d="m424.33783 444.61746l431.937 -444.6299" fill-rule="nonzero"></path><path fill="#000000" fill-opacity="0.0" d="m707.73883 154.46118l-47.748047 -49.196854" fill-rule="nonzero"></path><path stroke="#ffff00" stroke-width="12.0" stroke-linejoin="round" stroke-linecap="butt" d="m707.73883 154.46118l-47.748047 -49.196854" fill-rule="nonzero"></path><path fill="#000000" fill-opacity="0.0" d="m503.33038 355.08356l-70.99213 -73.07086" fill-rule="nonzero"></path><path stroke="#ffff00" stroke-width="12.0" stroke-linejoin="round" stroke-linecap="butt" d="m503.33038 355.08356l-70.99213 -73.07086" fill-rule="nonzero"></path><path fill="#000000" fill-opacity="0.0" d="m636.8822 227.52998l-70.99213 -73.07088" fill-rule="nonzero"></path><path stroke="#ffff00" stroke-width="12.0" stroke-linejoin="round" stroke-linecap="butt" d="m636.8822 227.52998l-70.99213 -73.07088" fill-rule="nonzero"></path><path fill="#000000" fill-opacity="0.0" d="m337.266 355.08368l54.141724 -55.716553" fill-rule="nonzero"></path><path stroke="#ffff00" stroke-width="12.0" stroke-linejoin="round" stroke-linecap="butt" d="m337.266 355.08368l54.141724 -55.716553" fill-rule="nonzero"></path><path fill="#000000" fill-opacity="0.0" d="m421.49918 446.74393l124.53543 128.22049" fill-rule="nonzero"></path><path stroke="#ffff00" stroke-width="12.0" stroke-linejoin="round" stroke-linecap="butt" d="m421.49918 446.74393l124.53543 128.22049" fill-rule="nonzero"></path><path fill="#000000" fill-opacity="0.0" d="m546.6457 575.56445l413.3543 -425.48032" fill-rule="nonzero"></path><path stroke="#ffff00" stroke-width="12.0" stroke-linejoin="round" stroke-linecap="butt" d="m546.6457 575.56445l413.3543 -425.48032" fill-rule="nonzero"></path><path fill="#000000" fill-opacity="0.0" d="m116.199455 127.85334l49.41732 -53.889763" fill-rule="nonzero"></path><path stroke="#ffff00" stroke-width="12.0" stroke-linejoin="round" stroke-linecap="butt" d="m116.199455 127.85334l49.41732 -53.889763" fill-rule="nonzero"></path><path fill="#000000" fill-opacity="0.0" d="m241.08658 250.9666l52.125977 -56.818893" fill-rule="nonzero"></path><path stroke="#ffff00" stroke-width="12.0" stroke-linejoin="round" stroke-linecap="butt" d="m241.08658 250.9666l52.125977 -56.818893" fill-rule="nonzero"></path><path fill="#000000" fill-opacity="0.0" d="m629.8634 488.91022l-79.811035 -86.96063" fill-rule="nonzero"></path><path stroke="#ffff00" stroke-width="12.0" stroke-linejoin="round" stroke-linecap="butt" d="m629.8634 488.91022l-79.811035 -86.96063" fill-rule="nonzero"></path><path fill="#000000" fill-opacity="0.0" d="m733.0314 387.1036l-31.496094 -34.362213" fill-rule="nonzero"></path><path stroke="#ffff00" stroke-width="12.0" stroke-linejoin="round" stroke-linecap="butt" d="m733.0314 387.1036l-31.496094 -34.362213" fill-rule="nonzero"></path><path fill="#000000" fill-opacity="0.0" d="m546.6457 574.96326l-66.23624 69.51178" fill-rule="nonzero"></path><path stroke="#ffff00" stroke-width="12.0" stroke-linejoin="round" stroke-linecap="butt" d="m546.6457 574.96326l-66.23624 69.51178" fill-rule="nonzero"></path><path fill="#000000" fill-opacity="0.0" d="m483.25723 643.9816l-404.53546 -404.53543" fill-rule="nonzero"></path><path stroke="#ffff00" stroke-width="12.0" stroke-linejoin="round" stroke-linecap="butt" d="m483.25723 643.9816l-404.53546 -404.53543" fill-rule="nonzero"></path><path fill="#000000" fill-opacity="0.0" d="m480.68765 642.895l-63.527557 63.527527" fill-rule="nonzero"></path><path stroke="#ffff00" stroke-width="12.0" stroke-linejoin="round" stroke-linecap="butt" d="m480.68765 642.895l-63.527557 63.527527" fill-rule="nonzero"></path><path fill="#000000" fill-opacity="0.0" d="m425.70078 705.8819l-276.9134 -276.9134" fill-rule="nonzero"></path><path stroke="#ffff00" stroke-width="12.0" stroke-linejoin="round" stroke-linecap="butt" d="m425.70078 705.8819l-276.9134 -276.9134" fill-rule="nonzero"></path></g></svg>

