<?xml version="1.0" standalone="yes"?>

<svg version="1.1" viewBox="0.0 0.0 960.0 528.0" fill="none" stroke="none" stroke-linecap="square" stroke-miterlimit="10" xmlns="http://www.w3.org/2000/svg" xmlns:xlink="http://www.w3.org/1999/xlink"><clipPath id="p.0"><path d="m0 0l960.0 0l0 528.0l-960.0 0l0 -528.0z" clip-rule="nonzero"></path></clipPath><g clip-path="url(#p.0)"><path fill="#000000" fill-opacity="0.0" d="m0 0l960.0 0l0 528.0l-960.0 0z" fill-rule="nonzero"></path><path fill="#000000" fill-opacity="0.0" d="m0 7.173811l424.34647 403.59058" fill-rule="nonzero"></path><path stroke="#00d800" stroke-width="12.0" stroke-linejoin="round" stroke-linecap="butt" d="m0 7.173811l424.34647 403.59058" fill-rule="nonzero"></path><path fill="#000000" fill-opacity="0.0" d="m424.3379 407.874l431.937 -407.87402" fill-rule="nonzero"></path><path stroke="#00d800" stroke-width="12.0" stroke-linejoin="round" stroke-linecap="butt" d="m424.3379 407.874l431.937 -407.87402" fill-rule="nonzero"></path><path fill="#000000" fill-opacity="0.0" d="m707.73895 141.69516l-47.748047 -45.10237" fill-rule="nonzero"></path><path stroke="#00d800" stroke-width="12.0" stroke-linejoin="round" stroke-linecap="butt" d="m707.73895 141.69516l-47.748047 -45.10237" fill-rule="nonzero"></path><path fill="#000000" fill-opacity="0.0" d="m510.81342 325.74115l-70.99213 -67.02362" fill-rule="nonzero"></path><path stroke="#00d800" stroke-width="12.0" stroke-linejoin="round" stroke-linecap="butt" d="m510.81342 325.74115l-70.99213 -67.02362" fill-rule="nonzero"></path><path fill="#000000" fill-opacity="0.0" d="m636.88226 208.72581l-70.99213 -67.02362" fill-rule="nonzero"></path><path stroke="#00d800" stroke-width="12.0" stroke-linejoin="round" stroke-linecap="butt" d="m636.88226 208.72581l-70.99213 -67.02362" fill-rule="nonzero"></path><path fill="#000000" fill-opacity="0.0" d="m337.26605 325.73895l54.141724 -51.118103" fill-rule="nonzero"></path><path stroke="#00d800" stroke-width="12.0" stroke-linejoin="round" stroke-linecap="butt" d="m337.26605 325.73895l54.141724 -51.118103" fill-rule="nonzero"></path><path fill="#000000" fill-opacity="0.0" d="m421.49924 409.82474l124.53543 117.60629" fill-rule="nonzero"></path><path stroke="#00d800" stroke-width="12.0" stroke-linejoin="round" stroke-linecap="butt" d="m421.49924 409.82474l124.53543 117.60629" fill-rule="nonzero"></path><path fill="#000000" fill-opacity="0.0" d="m546.6458 528.0l413.3543 -390.3307" fill-rule="nonzero"></path><path stroke="#00d800" stroke-width="12.0" stroke-linejoin="round" stroke-linecap="butt" d="m546.6458 528.0l413.3543 -390.3307" fill-rule="nonzero"></path></g></svg>

