<?xml version="1.0" standalone="yes"?>

<svg version="1.1" viewBox="0.0 0.0 960.0 720.0" fill="none" stroke="none" stroke-linecap="square" stroke-miterlimit="10" xmlns="http://www.w3.org/2000/svg" xmlns:xlink="http://www.w3.org/1999/xlink"><clipPath id="p.0"><path d="m0 0l960.0 0l0 720.0l-960.0 0l0 -720.0z" clip-rule="nonzero"></path></clipPath><g clip-path="url(#p.0)"><path fill="#000000" fill-opacity="0.0" d="m0 0l960.0 0l0 720.0l-960.0 0z" fill-rule="nonzero"></path><path fill="#000000" fill-opacity="0.0" d="m34.8084 358.16797l85.543304 89.60632" fill-rule="nonzero"></path><path stroke="#e06666" stroke-width="12.0" stroke-linejoin="round" stroke-linecap="butt" d="m34.8084 358.16797l85.543304 89.60632" fill-rule="nonzero"></path><path fill="#000000" fill-opacity="0.0" d="m120.33782 444.61746l281.79526 -288.8819" fill-rule="nonzero"></path><path stroke="#e06666" stroke-width="12.0" stroke-linejoin="round" stroke-linecap="butt" d="m120.33782 444.61746l281.79526 -288.8819" fill-rule="nonzero"></path><path fill="#000000" fill-opacity="0.0" d="m403.73883 162.46118l-47.748016 -49.196854" fill-rule="nonzero"></path><path stroke="#e06666" stroke-width="12.0" stroke-linejoin="round" stroke-linecap="butt" d="m403.73883 162.46118l-47.748016 -49.196854" fill-rule="nonzero"></path><path fill="#000000" fill-opacity="0.0" d="m33.265995 363.08368l54.141727 -55.716553" fill-rule="nonzero"></path><path stroke="#e06666" stroke-width="12.0" stroke-linejoin="round" stroke-linecap="butt" d="m33.265995 363.08368l54.141727 -55.716553" fill-rule="nonzero"></path><path fill="#000000" fill-opacity="0.0" d="m117.49916 446.74393l124.53543 128.22049" fill-rule="nonzero"></path><path stroke="#e06666" stroke-width="12.0" stroke-linejoin="round" stroke-linecap="butt" d="m117.49916 446.74393l124.53543 128.22049" fill-rule="nonzero"></path><path fill="#000000" fill-opacity="0.0" d="m242.64569 575.56445l185.13385 -192.66144" fill-rule="nonzero"></path><path stroke="#e06666" stroke-width="12.0" stroke-linejoin="round" stroke-linecap="butt" d="m242.64569 575.56445l185.13385 -192.66144" fill-rule="nonzero"></path><path fill="#000000" fill-opacity="0.0" d="m429.03137 387.1036l-31.496063 -34.362213" fill-rule="nonzero"></path><path stroke="#e06666" stroke-width="12.0" stroke-linejoin="round" stroke-linecap="butt" d="m429.03137 387.1036l-31.496063 -34.362213" fill-rule="nonzero"></path><path fill="#000000" fill-opacity="0.0" d="m242.64568 574.96326l-66.23622 69.51178" fill-rule="nonzero"></path><path stroke="#e06666" stroke-width="12.0" stroke-linejoin="round" stroke-linecap="butt" d="m242.64568 574.96326l-66.23622 69.51178" fill-rule="nonzero"></path><path fill="#000000" fill-opacity="0.0" d="m179.25722 643.9816l-158.17323 -153.92126" fill-rule="nonzero"></path><path stroke="#e06666" stroke-width="12.0" stroke-linejoin="round" stroke-linecap="butt" d="m179.25722 643.9816l-158.17323 -153.92126" fill-rule="nonzero"></path><path fill="#000000" fill-opacity="0.0" d="m824.3378 428.61746l86.677185 -85.03937" fill-rule="nonzero"></path><path stroke="#e06666" stroke-width="12.0" stroke-linejoin="round" stroke-linecap="butt" d="m824.3378 428.61746l86.677185 -85.03937" fill-rule="nonzero"></path><path fill="#000000" fill-opacity="0.0" d="m911.3304 347.08356l-70.99213 -73.07086" fill-rule="nonzero"></path><path stroke="#e06666" stroke-width="12.0" stroke-linejoin="round" stroke-linecap="butt" d="m911.3304 347.08356l-70.99213 -73.07086" fill-rule="nonzero"></path><path fill="#000000" fill-opacity="0.0" d="m517.1286 116.396324l428.9134 442.58267" fill-rule="nonzero"></path><path stroke="#e06666" stroke-width="12.0" stroke-linejoin="round" stroke-linecap="butt" d="m517.1286 116.396324l428.9134 442.58267" fill-rule="nonzero"></path><path fill="#000000" fill-opacity="0.0" d="m515.2966 124.64042l50.33075 -50.645668" fill-rule="nonzero"></path><path stroke="#e06666" stroke-width="12.0" stroke-linejoin="round" stroke-linecap="butt" d="m515.2966 124.64042l50.33075 -50.645668" fill-rule="nonzero"></path><path fill="#000000" fill-opacity="0.0" d="m946.6457 550.96326l-121.7323 130.6142" fill-rule="nonzero"></path><path stroke="#e06666" stroke-width="12.0" stroke-linejoin="round" stroke-linecap="butt" d="m946.6457 550.96326l-121.7323 130.6142" fill-rule="nonzero"></path><path fill="#000000" fill-opacity="0.0" d="m825.7008 689.8819l-276.9134 -276.9134" fill-rule="nonzero"></path><path stroke="#e06666" stroke-width="12.0" stroke-linejoin="round" stroke-linecap="butt" d="m825.7008 689.8819l-276.9134 -276.9134" fill-rule="nonzero"></path><path fill="#000000" fill-opacity="0.0" d="m698.6457 390.96326l-84.409485 90.92914" fill-rule="nonzero"></path><path stroke="#e06666" stroke-width="12.0" stroke-linejoin="round" stroke-linecap="butt" d="m698.6457 390.96326l-84.409485 90.92914" fill-rule="nonzero"></path></g></svg>

